<?xml version="1.0" encoding="UTF-8" standalone="no"?>
<svg width="122px" height="29px" viewBox="0 0 122 29" version="1.1" xmlns="http://www.w3.org/2000/svg" xmlns:xlink="http://www.w3.org/1999/xlink" xmlns:sketch="http://www.bohemiancoding.com/sketch/ns">
    <!-- Generator: Sketch 3.3.2 (12043) - http://www.bohemiancoding.com/sketch -->
    <title>codeplace</title>
    <desc>Created with Sketch.</desc>
    <defs></defs>
    <g id="Boostrap3-grid-system-layouts" stroke="none" stroke-width="1" fill="none" fill-rule="evenodd" sketch:type="MSPage">
        <g id="Desktop" sketch:type="MSArtboardGroup" transform="translate(-130.000000, -45.000000)" fill="#FFFFFF">
            <path d="M136.481571,51.889 C132.075429,51.889 130.301143,54.1068571 130.301143,59.4001429 C130.301143,65.0778571 131.868429,67.3252857 136.422429,67.3252857 C137.930571,67.3252857 140.917286,66.793 140.917286,66.793 L140.828571,64.2202857 C140.828571,64.2202857 138.492429,64.4568571 137.368714,64.4568571 C134.175,64.4568571 133.554,63.1852857 133.554,59.4001429 C133.554,55.9994286 134.263714,54.7574286 137.339143,54.7574286 C138.462857,54.7574286 140.799,54.994 140.799,54.994 L140.917286,52.4508571 C140.917286,52.4508571 138.048857,51.889 136.481571,51.889 L136.481571,51.889 Z M149.759143,51.889 C144.820714,51.889 143.164714,54.7278571 143.164714,59.5184286 C143.164714,64.4272857 144.702429,67.3252857 149.759143,67.3252857 C154.845429,67.3252857 156.353571,64.4272857 156.353571,59.5184286 C156.353571,54.7278571 154.697571,51.889 149.759143,51.889 L149.759143,51.889 Z M149.759143,64.6047143 C147.009,64.6047143 146.417571,62.9487143 146.417571,59.5184286 C146.417571,56.0881429 147.156857,54.6095714 149.759143,54.6095714 C152.361429,54.6095714 153.100714,56.0881429 153.100714,59.5184286 C153.100714,62.9487143 152.509286,64.6047143 149.759143,64.6047143 L149.759143,64.6047143 Z M171.612429,46.0634286 L168.389143,46.0634286 L168.389143,52.2734286 C168.211714,52.2438571 166.200857,51.889 165.018,51.889 C160.789286,51.889 158.867143,54.2842857 158.867143,59.6367143 C158.867143,65.344 160.671,67.3252857 164.456143,67.3252857 C166.26,67.3252857 168.418714,66.2311429 168.418714,66.2311429 L168.418714,67 L171.612429,67 L171.612429,46.0634286 Z M164.958857,64.4568571 C163.155,64.4568571 162.12,63.4218571 162.12,59.6367143 C162.12,56.2655714 163.066286,54.6687143 165.254571,54.6687143 C166.496571,54.6687143 168.211714,54.9348571 168.389143,54.9644286 L168.389143,63.7175714 C168.389143,63.7175714 166.644429,64.4568571 164.958857,64.4568571 L164.958857,64.4568571 Z M181.430143,64.516 C178.975714,64.516 178.088571,63.3331429 178.059,60.9674286 L187.226143,60.9674286 L187.433143,58.6608571 C187.433143,54.0477143 185.363143,51.889 181.223143,51.889 C177.142286,51.889 174.806143,54.3434286 174.806143,59.755 C174.806143,64.9595714 176.521286,67.3252857 180.957,67.3252857 C183.559286,67.3252857 186.930429,66.6451429 186.930429,66.6451429 L186.871286,64.2498571 C186.871286,64.2498571 183.766286,64.516 181.430143,64.516 L181.430143,64.516 Z M178.029429,58.4834286 C178.059,55.6445714 179.034857,54.5504286 181.223143,54.5504286 C183.381857,54.5504286 184.269,55.5262857 184.269,58.4834286 L178.029429,58.4834286 Z M190.804286,73.6535714 L192.549,73.6535714 L192.549,66.9112857 C193.081286,67.0295714 194.619,67.2957143 196.097571,67.2957143 C200.681143,67.2957143 202.485,65.1074286 202.485,59.4001429 C202.485,54.2547143 200.917714,51.9185714 197.221286,51.9185714 C194.855571,51.9185714 192.549,53.338 192.549,53.338 L192.549,52.2142857 L190.804286,52.2142857 L190.804286,73.6535714 Z M197.043857,53.5154286 C199.350429,53.5154286 200.651571,55.0827143 200.651571,59.4001429 C200.651571,63.9541429 199.468714,65.7284286 196.038429,65.7284286 C194.619,65.7284286 193.051714,65.4622857 192.549,65.3735714 L192.549,54.8461429 C192.549,54.8461429 194.826,53.5154286 197.043857,53.5154286 L197.043857,53.5154286 Z M206.447571,67 L208.192286,67 L208.192286,45.6494286 L206.447571,45.6494286 L206.447571,67 Z M222.978,56.6204286 C222.978,53.4858571 221.617714,51.9185714 218.394429,51.9185714 C215.910429,51.9185714 212.657571,52.5395714 212.657571,52.5395714 L212.746286,53.959 C212.746286,53.959 216.206143,53.5154286 218.335286,53.5154286 C220.227857,53.5154286 221.233286,54.373 221.233286,56.6204286 L221.233286,58.0102857 L216.206143,58.513 C213.219429,58.8087143 211.859143,60.1098571 211.859143,62.8304286 C211.859143,65.7875714 213.308143,67.2957143 215.910429,67.2957143 C218.690143,67.2957143 221.469857,66.0832857 221.469857,66.0832857 C222.268286,66.9704286 223.362429,67.2661429 224.811429,67.2661429 L224.900143,65.8467143 C223.924286,65.7284286 223.066714,65.4327143 222.978,64.5455714 L222.978,56.6204286 Z M221.233286,59.4001429 L221.233286,64.7525714 C221.233286,64.7525714 218.542286,65.7875714 216.147,65.7875714 C214.520571,65.7875714 213.692571,64.6934286 213.692571,62.8008571 C213.692571,61.0265714 214.431857,60.0802857 216.413143,59.9028571 L221.233286,59.4001429 Z M233.061857,51.9185714 C228.655714,51.9185714 226.940571,53.9294286 226.940571,59.341 C226.940571,65.1665714 228.241714,67.2957143 233.032286,67.2957143 C234.303857,67.2957143 236.935714,66.9408571 236.935714,66.9408571 L236.876571,65.4327143 C236.876571,65.4327143 234.481286,65.6988571 233.357571,65.6988571 C229.483714,65.6988571 228.774,63.9837143 228.774,59.341 C228.774,55.0827143 229.809,53.5154286 233.357571,53.5154286 C234.481286,53.5154286 236.817429,53.8111429 236.817429,53.8111429 L236.906143,52.303 C236.906143,52.303 234.333429,51.9185714 233.061857,51.9185714 L233.061857,51.9185714 Z M245.422714,65.6988571 C242.317714,65.6988571 241.312286,63.8358571 241.312286,60.3464286 L251.366571,60.3464286 L251.425714,58.927 C251.425714,53.959 249.414857,51.9185714 245.600143,51.9185714 C241.992429,51.9185714 239.508429,53.959 239.508429,59.6662857 C239.508429,64.6047143 240.839143,67.2661429 245.245286,67.2957143 C247.551857,67.2957143 250.893429,66.8817143 250.893429,66.8817143 L250.834286,65.4327143 C250.834286,65.4327143 247.581429,65.6988571 245.422714,65.6988571 L245.422714,65.6988571 Z M241.312286,58.8678571 C241.312286,54.9348571 242.909143,53.4562857 245.600143,53.4562857 C248.379857,53.4562857 249.651429,54.8757143 249.651429,58.8678571 L241.312286,58.8678571 Z" id="codeplace" sketch:type="MSShapeGroup"></path>
        </g>
    </g>
</svg>