<?xml version="1.0" encoding="UTF-8" standalone="no"?>
<svg width="122px" height="29px" viewBox="0 0 122 29" version="1.1" xmlns="http://www.w3.org/2000/svg" xmlns:xlink="http://www.w3.org/1999/xlink" xmlns:sketch="http://www.bohemiancoding.com/sketch/ns">
    <!-- Generator: Sketch 3.3.2 (12043) - http://www.bohemiancoding.com/sketch -->
    <title>codeplace copy</title>
    <desc>Created with Sketch.</desc>
    <defs></defs>
    <g id="Boostrap3-grid-system-layouts" stroke="none" stroke-width="1" fill="none" fill-rule="evenodd" sketch:type="MSPage">
        <g id="Desktop" sketch:type="MSArtboardGroup" transform="translate(-131.000000, -131.000000)" fill="#404040">
            <path d="M137.481571,137.889 C133.075429,137.889 131.301143,140.106857 131.301143,145.400143 C131.301143,151.077857 132.868429,153.325286 137.422429,153.325286 C138.930571,153.325286 141.917286,152.793 141.917286,152.793 L141.828571,150.220286 C141.828571,150.220286 139.492429,150.456857 138.368714,150.456857 C135.175,150.456857 134.554,149.185286 134.554,145.400143 C134.554,141.999429 135.263714,140.757429 138.339143,140.757429 C139.462857,140.757429 141.799,140.994 141.799,140.994 L141.917286,138.450857 C141.917286,138.450857 139.048857,137.889 137.481571,137.889 L137.481571,137.889 Z M150.759143,137.889 C145.820714,137.889 144.164714,140.727857 144.164714,145.518429 C144.164714,150.427286 145.702429,153.325286 150.759143,153.325286 C155.845429,153.325286 157.353571,150.427286 157.353571,145.518429 C157.353571,140.727857 155.697571,137.889 150.759143,137.889 L150.759143,137.889 Z M150.759143,150.604714 C148.009,150.604714 147.417571,148.948714 147.417571,145.518429 C147.417571,142.088143 148.156857,140.609571 150.759143,140.609571 C153.361429,140.609571 154.100714,142.088143 154.100714,145.518429 C154.100714,148.948714 153.509286,150.604714 150.759143,150.604714 L150.759143,150.604714 Z M172.612429,132.063429 L169.389143,132.063429 L169.389143,138.273429 C169.211714,138.243857 167.200857,137.889 166.018,137.889 C161.789286,137.889 159.867143,140.284286 159.867143,145.636714 C159.867143,151.344 161.671,153.325286 165.456143,153.325286 C167.26,153.325286 169.418714,152.231143 169.418714,152.231143 L169.418714,153 L172.612429,153 L172.612429,132.063429 Z M165.958857,150.456857 C164.155,150.456857 163.12,149.421857 163.12,145.636714 C163.12,142.265571 164.066286,140.668714 166.254571,140.668714 C167.496571,140.668714 169.211714,140.934857 169.389143,140.964429 L169.389143,149.717571 C169.389143,149.717571 167.644429,150.456857 165.958857,150.456857 L165.958857,150.456857 Z M182.430143,150.516 C179.975714,150.516 179.088571,149.333143 179.059,146.967429 L188.226143,146.967429 L188.433143,144.660857 C188.433143,140.047714 186.363143,137.889 182.223143,137.889 C178.142286,137.889 175.806143,140.343429 175.806143,145.755 C175.806143,150.959571 177.521286,153.325286 181.957,153.325286 C184.559286,153.325286 187.930429,152.645143 187.930429,152.645143 L187.871286,150.249857 C187.871286,150.249857 184.766286,150.516 182.430143,150.516 L182.430143,150.516 Z M179.029429,144.483429 C179.059,141.644571 180.034857,140.550429 182.223143,140.550429 C184.381857,140.550429 185.269,141.526286 185.269,144.483429 L179.029429,144.483429 Z M191.804286,159.653571 L193.549,159.653571 L193.549,152.911286 C194.081286,153.029571 195.619,153.295714 197.097571,153.295714 C201.681143,153.295714 203.485,151.107429 203.485,145.400143 C203.485,140.254714 201.917714,137.918571 198.221286,137.918571 C195.855571,137.918571 193.549,139.338 193.549,139.338 L193.549,138.214286 L191.804286,138.214286 L191.804286,159.653571 Z M198.043857,139.515429 C200.350429,139.515429 201.651571,141.082714 201.651571,145.400143 C201.651571,149.954143 200.468714,151.728429 197.038429,151.728429 C195.619,151.728429 194.051714,151.462286 193.549,151.373571 L193.549,140.846143 C193.549,140.846143 195.826,139.515429 198.043857,139.515429 L198.043857,139.515429 Z M207.447571,153 L209.192286,153 L209.192286,131.649429 L207.447571,131.649429 L207.447571,153 Z M223.978,142.620429 C223.978,139.485857 222.617714,137.918571 219.394429,137.918571 C216.910429,137.918571 213.657571,138.539571 213.657571,138.539571 L213.746286,139.959 C213.746286,139.959 217.206143,139.515429 219.335286,139.515429 C221.227857,139.515429 222.233286,140.373 222.233286,142.620429 L222.233286,144.010286 L217.206143,144.513 C214.219429,144.808714 212.859143,146.109857 212.859143,148.830429 C212.859143,151.787571 214.308143,153.295714 216.910429,153.295714 C219.690143,153.295714 222.469857,152.083286 222.469857,152.083286 C223.268286,152.970429 224.362429,153.266143 225.811429,153.266143 L225.900143,151.846714 C224.924286,151.728429 224.066714,151.432714 223.978,150.545571 L223.978,142.620429 Z M222.233286,145.400143 L222.233286,150.752571 C222.233286,150.752571 219.542286,151.787571 217.147,151.787571 C215.520571,151.787571 214.692571,150.693429 214.692571,148.800857 C214.692571,147.026571 215.431857,146.080286 217.413143,145.902857 L222.233286,145.400143 Z M234.061857,137.918571 C229.655714,137.918571 227.940571,139.929429 227.940571,145.341 C227.940571,151.166571 229.241714,153.295714 234.032286,153.295714 C235.303857,153.295714 237.935714,152.940857 237.935714,152.940857 L237.876571,151.432714 C237.876571,151.432714 235.481286,151.698857 234.357571,151.698857 C230.483714,151.698857 229.774,149.983714 229.774,145.341 C229.774,141.082714 230.809,139.515429 234.357571,139.515429 C235.481286,139.515429 237.817429,139.811143 237.817429,139.811143 L237.906143,138.303 C237.906143,138.303 235.333429,137.918571 234.061857,137.918571 L234.061857,137.918571 Z M246.422714,151.698857 C243.317714,151.698857 242.312286,149.835857 242.312286,146.346429 L252.366571,146.346429 L252.425714,144.927 C252.425714,139.959 250.414857,137.918571 246.600143,137.918571 C242.992429,137.918571 240.508429,139.959 240.508429,145.666286 C240.508429,150.604714 241.839143,153.266143 246.245286,153.295714 C248.551857,153.295714 251.893429,152.881714 251.893429,152.881714 L251.834286,151.432714 C251.834286,151.432714 248.581429,151.698857 246.422714,151.698857 L246.422714,151.698857 Z M242.312286,144.867857 C242.312286,140.934857 243.909143,139.456286 246.600143,139.456286 C249.379857,139.456286 250.651429,140.875714 250.651429,144.867857 L242.312286,144.867857 Z" id="codeplace-copy" sketch:type="MSShapeGroup"></path>
        </g>
    </g>
</svg>